<svg width="108" height="21" viewBox="0 0 108 21" fill="none" xmlns="http://www.w3.org/2000/svg">
<path d="M14.01 1.01C15.37 6.33 16.47 10.55 17.31 13.67L19.74 1.01H23.79L19.08 20H15.84L11.94 6.74L8.01 20H4.74L0.15 1.01H4.17L6.54 13.67C7.98 8.43 9.11 4.21 9.93 1.01H14.01ZM35.9009 20H32.8709L32.5709 18.71C31.2509 19.81 29.9109 20.36 28.5509 20.36C25.5309 20.36 24.0209 18.89 24.0209 15.95C24.0209 14.49 24.6509 13.35 25.9109 12.53C27.1909 11.69 29.0809 11.27 31.5809 11.27H32.2109V11.21C32.2109 10.35 32.0309 9.76 31.6709 9.44C31.3109 9.12 30.6609 8.96 29.7209 8.96C28.4009 8.96 27.1909 9.38 26.0909 10.22C25.7309 9.56 25.3909 8.91 25.0709 8.27C26.2109 7.39 27.2009 6.8 28.0409 6.5C28.9009 6.18 29.9209 6.02 31.1009 6.02C34.3009 6.02 35.9009 8.02 35.9009 12.02V20ZM32.0909 13.58H31.6409C30.5009 13.58 29.5809 13.78 28.8809 14.18C28.1809 14.58 27.8309 15.11 27.8309 15.77C27.8309 17.01 28.3709 17.63 29.4509 17.63C30.1109 17.63 30.6909 17.44 31.1909 17.06C31.6909 16.68 31.9909 16.2 32.0909 15.62V13.58ZM47.9295 9.68C46.9495 9.04 45.8295 8.72 44.5695 8.72C43.6095 8.72 43.1295 9.13 43.1295 9.95C43.1295 10.71 43.7795 11.25 45.0795 11.57C46.6995 11.97 47.7995 12.42 48.3795 12.92C49.2195 13.64 49.6395 14.72 49.6395 16.16C49.6395 17.44 49.1795 18.46 48.2595 19.22C47.3595 19.98 46.1395 20.36 44.5995 20.36C42.4195 20.36 40.5795 19.74 39.0795 18.5L40.4595 16.4C41.4995 17.22 42.7495 17.63 44.2095 17.63C44.7895 17.63 45.2595 17.49 45.6195 17.21C45.9795 16.93 46.1595 16.56 46.1595 16.1C46.1595 15.26 45.4495 14.71 44.0295 14.45C40.9895 13.87 39.4695 12.39 39.4695 10.01C39.4695 8.87 39.9295 7.92 40.8495 7.16C41.7895 6.4 42.9595 6.02 44.3595 6.02C46.2595 6.02 47.9095 6.57 49.3095 7.67L47.9295 9.68ZM65.1185 14.42H55.7585C55.8385 15.34 56.2085 16.11 56.8685 16.73C57.5485 17.33 58.3485 17.63 59.2685 17.63C60.5685 17.63 61.9285 17.23 63.3485 16.43L64.3085 18.44C62.8685 19.72 61.0685 20.36 58.9085 20.36C56.5885 20.36 54.7785 19.7 53.4785 18.38C52.2385 17.14 51.6185 15.43 51.6185 13.25C51.6185 11.11 52.3185 9.34 53.7185 7.94C54.9785 6.66 56.5785 6.02 58.5185 6.02C60.6785 6.02 62.3585 6.75 63.5585 8.21C64.5985 9.45 65.1185 11.06 65.1185 13.04V14.42ZM55.5485 11.63H61.3385C61.2385 9.67 60.2885 8.69 58.4885 8.69C56.7485 8.69 55.7685 9.67 55.5485 11.63ZM76.8295 9.41H72.9295V16.16C72.9295 17.16 73.2595 17.66 73.9195 17.66C74.5195 17.66 75.2695 17.4 76.1695 16.88L77.4295 18.8C76.0095 19.92 74.4395 20.48 72.7195 20.48C70.3195 20.48 69.1195 19.16 69.1195 16.52V9.41H67.2295V6.38H69.1495V3.95C70.1495 3.41 71.4195 2.74 72.9595 1.94V6.38H76.8295V9.41ZM91.2134 20H88.1834L87.8834 18.71C86.5634 19.81 85.2234 20.36 83.8634 20.36C80.8434 20.36 79.3334 18.89 79.3334 15.95C79.3334 14.49 79.9634 13.35 81.2234 12.53C82.5034 11.69 84.3934 11.27 86.8934 11.27H87.5234V11.21C87.5234 10.35 87.3434 9.76 86.9834 9.44C86.6234 9.12 85.9734 8.96 85.0334 8.96C83.7134 8.96 82.5034 9.38 81.4034 10.22C81.0434 9.56 80.7034 8.91 80.3834 8.27C81.5234 7.39 82.5134 6.8 83.3534 6.5C84.2134 6.18 85.2334 6.02 86.4134 6.02C89.6134 6.02 91.2134 8.02 91.2134 12.02V20ZM87.4034 13.58H86.9534C85.8134 13.58 84.8934 13.78 84.1934 14.18C83.4934 14.58 83.1434 15.11 83.1434 15.77C83.1434 17.01 83.6834 17.63 84.7634 17.63C85.4234 17.63 86.0034 17.44 86.5034 17.06C87.0034 16.68 87.3034 16.2 87.4034 15.62V13.58ZM107.982 6.38L101.532 11.87C103.932 15.47 105.782 18.18 107.082 20H102.822C101.142 17.12 99.872 14.96 99.012 13.52V20H95.232V2.63L99.012 0.649999V9.68C99.992 8.9 101.302 7.8 102.942 6.38H107.982Z" fill="white"/>
</svg>
